Alex_12_06_23.ufo
<glyph name="exclam" format="2">
  <advance width="258"/>
  <unicode hex="0021"/>
  <outline>
    <contour>
      <point x="90" y="721" type="line"/>
      <point x="168" y="721" type="line"/>
      <point x="168" y="521" type="line"/>
      <point x="146" y="160" type="line"/>
      <point x="112" y="160" type="line"/>
      <point x="90" y="521" type="line"/>
    </contour>
    <contour>
      <point x="168" y="92" type="line"/>
      <point x="90" y="92" type="line"/>
      <point x="90" y="0" type="line"/>
      <point x="168" y="0" type="line"/>
    </contour>
  </outline>
</glyph>
<glyph name="comma" format="2">
  <advance width="146"/>
  <unicode hex="002C"/>
  <outline>
    <contour>
      <point x="90" y="0" type="line"/>
      <point x="73" y="2" type="line"/>
      <point x="73" y="-41"/>
      <point x="61" y="-60"/>
      <point x="35" y="-63" type="curve"/>
      <point x="35" y="-63"/>
      <point x="42" y="-92"/>
      <point x="42" y="-92" type="curve"/>
      <point x="92" y="-87"/>
      <point x="111" y="-48"/>
      <point x="111" y="0" type="curve"/>
      <point x="111" y="92" type="line"/>
      <point x="35" y="92" type="line"/>
      <point x="35" y="0" type="line"/>
    </contour>
  </outline>
</glyph>
<glyph name="zero" format="2">
  <advance width="561"/>
  <unicode hex="0030"/>
  <outline>
    <contour>
      <point x="283" y="58" type="curve" smooth="yes"/>
      <point x="205" y="58"/>
      <point x="133" y="135"/>
      <point x="133" y="333" type="curve" smooth="yes"/>
      <point x="133" y="540"/>
      <point x="206" y="619"/>
      <point x="282" y="619" type="curve" smooth="yes"/>
      <point x="358" y="619"/>
      <point x="428" y="544"/>
      <point x="428" y="333" type="curve" smooth="yes"/>
      <point x="428" y="130"/>
      <point x="361" y="58"/>
    </contour>
    <contour>
      <point x="286" y="685" type="curve" smooth="yes"/>
      <point x="153" y="685"/>
      <point x="55" y="562"/>
      <point x="55" y="333" type="curve" smooth="yes"/>
      <point x="55" y="112"/>
      <point x="139" y="-8"/>
      <point x="279" y="-8" type="curve" smooth="yes"/>
      <point x="419" y="-8"/>
      <point x="506" y="117"/>
      <point x="506" y="333" type="curve" smooth="yes"/>
      <point x="506" y="556"/>
      <point x="419" y="685"/>
    </contour>
  </outline>
</glyph>
<glyph name="one" format="2">
  <advance width="343"/>
  <unicode hex="0031"/>
  <outline>
    <contour>
      <point x="178" y="0" type="line"/>
      <point x="178" y="685" type="line"/>
      <point x="248" y="685" type="line"/>
      <point x="248" y="0" type="line"/>
    </contour>
    <contour>
      <point x="54" y="479" type="line"/>
      <point x="25" y="539" type="line"/>
      <point x="178" y="685" type="line"/>
      <point x="204" y="623" type="line"/>
    </contour>
  </outline>
</glyph>
<glyph name="two" format="2">
  <advance width="484"/>
  <unicode hex="0032"/>
  <outline>
    <contour>
      <point x="50" y="69" type="line"/>
      <point x="253" y="234"/>
      <point x="339" y="351"/>
      <point x="339" y="494" type="curve"/>
      <point x="339" y="579"/>
      <point x="287" y="631"/>
      <point x="222" y="631" type="curve" smooth="yes"/>
      <point x="148" y="631"/>
      <point x="101" y="578"/>
      <point x="87" y="494" type="curve"/>
      <point x="30" y="539" type="line"/>
      <point x="48" y="642"/>
      <point x="128" y="695"/>
      <point x="230" y="695" type="curve"/>
      <point x="336" y="695"/>
      <point x="410" y="616"/>
      <point x="410" y="507" type="curve"/>
      <point x="410" y="338"/>
      <point x="330" y="208"/>
      <point x="156" y="67" type="curve"/>
      <point x="434" y="67" type="line"/>
      <point x="434" y="0" type="line"/>
      <point x="50" y="0" type="line"/>
    </contour>
  </outline>
</glyph>
<glyph name="three" format="2">
  <advance width="510"/>
  <unicode hex="0033"/>
  <outline>
    <contour>
      <point x="209" y="371" type="line"/>
      <point x="313" y="371"/>
      <point x="382" y="427"/>
      <point x="382" y="504" type="curve"/>
      <point x="382" y="591"/>
      <point x="320" y="633"/>
      <point x="237" y="633" type="curve"/>
      <point x="160" y="633"/>
      <point x="101" y="584"/>
      <point x="87" y="494" type="curve"/>
      <point x="30" y="539" type="line"/>
      <point x="48" y="642"/>
      <point x="136" y="695"/>
      <point x="241" y="695" type="curve"/>
      <point x="371" y="695"/>
      <point x="453" y="625"/>
      <point x="453" y="519" type="curve"/>
      <point x="453" y="409"/>
      <point x="390" y="350"/>
      <point x="284" y="328" type="curve"/>
      <point x="284" y="350" type="line"/>
      <point x="405" y="344"/>
      <point x="475" y="288"/>
      <point x="475" y="185" type="curve" smooth="yes"/>
      <point x="475" y="64"/>
      <point x="366" y="-8"/>
      <point x="246" y="-8" type="curve"/>
      <point x="124" y="-8"/>
      <point x="42" y="68"/>
      <point x="35" y="148" type="curve"/>
      <point x="92" y="193" type="line"/>
      <point x="106" y="109"/>
      <point x="170" y="56"/>
      <point x="243" y="56" type="curve"/>
      <point x="313" y="56"/>
      <point x="405" y="84"/>
      <point x="405" y="192" type="curve" smooth="yes"/>
      <point x="405" y="284"/>
      <point x="304" y="307"/>
      <point x="209" y="307" type="curve"/>
    </contour>
  </outline>
</glyph>
<glyph name="four" format="2">
  <advance width="506"/>
  <unicode hex="0034"/>
  <outline>
    <contour>
      <point x="269" y="685" type="line"/>
      <point x="199" y="685" type="line"/>
      <point x="40" y="173" type="line"/>
      <point x="436" y="173" type="line"/>
      <point x="436" y="237" type="line"/>
      <point x="70" y="237" type="line"/>
      <point x="133" y="212" type="line"/>
    </contour>
    <contour>
      <point x="360" y="420" type="line"/>
      <point x="290" y="420" type="line"/>
      <point x="290" y="0" type="line"/>
      <point x="360" y="0" type="line"/>
    </contour>
  </outline>
</glyph>
<glyph name="five" format="2">
  <advance width="525"/>
  <unicode hex="0035"/>
  <outline>
    <contour>
      <point x="268" y="461" type="curve"/>
      <point x="391" y="461"/>
      <point x="475" y="362"/>
      <point x="475" y="241" type="curve" smooth="yes"/>
      <point x="475" y="110"/>
      <point x="386" y="-8"/>
      <point x="249" y="-8" type="curve"/>
      <point x="131" y="-8"/>
      <point x="53" y="45"/>
      <point x="35" y="148" type="curve"/>
      <point x="92" y="193" type="line"/>
      <point x="106" y="109"/>
      <point x="149" y="58"/>
      <point x="252" y="58" type="curve"/>
      <point x="327" y="58"/>
      <point x="403" y="124"/>
      <point x="403" y="241" type="curve" smooth="yes"/>
      <point x="403" y="344"/>
      <point x="327" y="398"/>
      <point x="260" y="398" type="curve"/>
      <point x="199" y="398"/>
      <point x="143" y="372"/>
      <point x="122" y="325" type="curve"/>
      <point x="48" y="325" type="line"/>
      <point x="48" y="325"/>
      <point x="121" y="685"/>
      <point x="121" y="685" type="curve"/>
      <point x="439" y="685" type="line"/>
      <point x="439" y="621" type="line"/>
      <point x="181" y="621" type="line"/>
      <point x="126" y="379" type="line"/>
      <point x="103" y="349" type="line"/>
      <point x="126" y="425"/>
      <point x="182" y="461"/>
    </contour>
  </outline>
</glyph>
<glyph name="six" format="2">
  <advance width="607"/>
  <unicode hex="0036"/>
  <outline>
    <contour>
      <point x="114" y="300" type="curve"/>
      <point x="127" y="345" type="line"/>
      <point x="127" y="564"/>
      <point x="212" y="629"/>
      <point x="287" y="629" type="curve" smooth="yes"/>
      <point x="354" y="629"/>
      <point x="395" y="585"/>
      <point x="406" y="526" type="curve"/>
      <point x="406" y="526"/>
      <point x="473" y="555"/>
      <point x="473" y="555" type="curve" smooth="yes"/>
      <point x="456" y="626"/>
      <point x="394" y="685"/>
      <point x="288" y="685" type="curve" smooth="yes"/>
      <point x="159" y="685"/>
      <point x="55" y="592"/>
      <point x="55" y="340" type="curve"/>
      <point x="55" y="83"/>
      <point x="145" y="-8"/>
      <point x="282" y="-8" type="curve"/>
      <point x="414" y="-8"/>
      <point x="485" y="112"/>
      <point x="485" y="231" type="curve" smooth="yes"/>
      <point x="485" y="350"/>
      <point x="398" y="441"/>
      <point x="286" y="441" type="curve"/>
      <point x="201" y="441"/>
      <point x="125" y="403"/>
    </contour>
    <contour>
      <point x="137" y="231" type="curve"/>
      <point x="137" y="332"/>
      <point x="213" y="378"/>
      <point x="280" y="378" type="curve" smooth="yes"/>
      <point x="347" y="378"/>
      <point x="413" y="333"/>
      <point x="413" y="231" type="curve" smooth="yes"/>
      <point x="413" y="129"/>
      <point x="352" y="58"/>
      <point x="284" y="58" type="curve"/>
      <point x="196" y="58"/>
      <point x="137" y="112"/>
    </contour>
  </outline>
</glyph>
<glyph name="seven" format="2">
  <advance width="470"/>
  <unicode hex="0037"/>
  <outline>
    <contour>
      <point x="430" y="685" type="line"/>
      <point x="30" y="685" type="line"/>
      <point x="30" y="621" type="line"/>
      <point x="371" y="621" type="line"/>
      <point x="352" y="650" type="line"/>
      <point x="184" y="0" type="line"/>
      <point x="261" y="0" type="line"/>
    </contour>
  </outline>
</glyph>
<glyph name="eight" format="2">
  <advance width="500"/>
  <unicode hex="0038"/>
  <outline>
    <contour>
      <point x="248" y="623" type="curve" smooth="yes"/>
      <point x="168" y="623"/>
      <point x="120" y="575"/>
      <point x="120" y="507" type="curve" smooth="yes"/>
      <point x="120" y="433"/>
      <point x="175" y="381"/>
      <point x="253" y="381" type="curve" smooth="yes"/>
      <point x="331" y="381"/>
      <point x="386" y="431"/>
      <point x="386" y="507" type="curve" smooth="yes"/>
      <point x="386" y="577"/>
      <point x="330" y="623"/>
    </contour>
    <contour>
      <point x="248" y="-8" type="curve" smooth="yes"/>
      <point x="127" y="-8"/>
      <point x="35" y="69"/>
      <point x="35" y="181" type="curve" smooth="yes"/>
      <point x="35" y="284"/>
      <point x="89" y="344"/>
      <point x="178" y="360" type="curve"/>
      <point x="198" y="337" type="line"/>
      <point x="109" y="357"/>
      <point x="49" y="420"/>
      <point x="49" y="522" type="curve" smooth="yes"/>
      <point x="49" y="609"/>
      <point x="137" y="685"/>
      <point x="252" y="685" type="curve" smooth="yes"/>
      <point x="367" y="685"/>
      <point x="457" y="615"/>
      <point x="457" y="521" type="curve" smooth="yes"/>
      <point x="457" y="412"/>
      <point x="395" y="357"/>
      <point x="308" y="338" type="curve"/>
      <point x="328" y="360" type="line"/>
      <point x="422" y="339"/>
      <point x="465" y="283"/>
      <point x="465" y="180" type="curve" smooth="yes"/>
      <point x="465" y="68"/>
      <point x="369" y="-8"/>
    </contour>
    <contour>
      <point x="251" y="56" type="curve" smooth="yes"/>
      <point x="334" y="56"/>
      <point x="393" y="109"/>
      <point x="393" y="195" type="curve" smooth="yes"/>
      <point x="393" y="275"/>
      <point x="337" y="317"/>
      <point x="253" y="317" type="curve" smooth="yes"/>
      <point x="169" y="317"/>
      <point x="107" y="273"/>
      <point x="107" y="196" type="curve" smooth="yes"/>
      <point x="107" y="113"/>
      <point x="168" y="56"/>
    </contour>
  </outline>
</glyph>
<glyph name="nine" format="2">
  <advance width="607"/>
  <unicode hex="0039"/>
  <outline>
    <contour>
      <point x="426" y="377" type="curve"/>
      <point x="413" y="332" type="line"/>
      <point x="413" y="113"/>
      <point x="328" y="48"/>
      <point x="253" y="48" type="curve" smooth="yes"/>
      <point x="186" y="48"/>
      <point x="145" y="92"/>
      <point x="134" y="151" type="curve"/>
      <point x="134" y="151"/>
      <point x="67" y="122"/>
      <point x="67" y="122" type="curve" smooth="yes"/>
      <point x="84" y="51"/>
      <point x="146" y="-8"/>
      <point x="252" y="-8" type="curve" smooth="yes"/>
      <point x="381" y="-8"/>
      <point x="485" y="100"/>
      <point x="485" y="317" type="curve"/>
      <point x="485" y="574"/>
      <point x="395" y="685"/>
      <point x="258" y="685" type="curve"/>
      <point x="126" y="685"/>
      <point x="55" y="565"/>
      <point x="55" y="446" type="curve" smooth="yes"/>
      <point x="55" y="327"/>
      <point x="142" y="236"/>
      <point x="254" y="236" type="curve"/>
      <point x="339" y="236"/>
      <point x="415" y="274"/>
    </contour>
    <contour>
      <point x="403" y="446" type="curve"/>
      <point x="403" y="345"/>
      <point x="327" y="299"/>
      <point x="260" y="299" type="curve" smooth="yes"/>
      <point x="193" y="299"/>
      <point x="127" y="344"/>
      <point x="127" y="446" type="curve" smooth="yes"/>
      <point x="127" y="548"/>
      <point x="188" y="619"/>
      <point x="256" y="619" type="curve"/>
      <point x="344" y="619"/>
      <point x="403" y="565"/>
    </contour>
  </outline>
</glyph>
<glyph name="question" format="2">
  <advance width="455"/>
  <unicode hex="003F"/>
  <outline>
    <contour>
      <point x="183" y="195" type="line"/>
      <point x="183" y="492"/>
      <point x="335" y="384"/>
      <point x="335" y="555" type="curve"/>
      <point x="335" y="614"/>
      <point x="286" y="666"/>
      <point x="227" y="666" type="curve" smooth="yes"/>
      <point x="153" y="666"/>
      <point x="106" y="615"/>
      <point x="92" y="531" type="curve"/>
      <point x="35" y="576" type="line"/>
      <point x="55" y="674"/>
      <point x="124" y="732"/>
      <point x="225" y="732" type="curve"/>
      <point x="347" y="732"/>
      <point x="410" y="635"/>
      <point x="410" y="561" type="curve"/>
      <point x="410" y="330"/>
      <point x="251" y="441"/>
      <point x="251" y="195" type="curve"/>
    </contour>
    <contour>
      <point x="255" y="92" type="line"/>
      <point x="177" y="92" type="line"/>
      <point x="177" y="0" type="line"/>
      <point x="255" y="0" type="line"/>
    </contour>
  </outline>
</glyph>
<glyph name="N" format="2">
  <advance width="650"/>
  <unicode hex="004E"/>
  <note>
Made my verticals optically balanced to the horizontal. I was tempted to make them thinner to follow contrast model but following Troy’s advice that the contast is too minimal and making the verticals too thin would simply disrupt the rhythm.
</note>
  <outline>
    <contour>
      <point x="171" y="709" type="line"/>
      <point x="133" y="709" type="line"/>
      <point x="447" y="0" type="line"/>
      <point x="555" y="0" type="line"/>
      <point x="555" y="720" type="line"/>
      <point x="479" y="720" type="line"/>
      <point x="479" y="11" type="line"/>
      <point x="519" y="11" type="line"/>
      <point x="215" y="720" type="line"/>
      <point x="95" y="720" type="line"/>
      <point x="95" y="0" type="line"/>
      <point x="171" y="0" type="line"/>
    </contour>
  </outline>
</glyph>
<glyph name="S" format="2">
  <advance width="545"/>
  <unicode hex="0053"/>
  <outline>
    <contour>
      <point x="429" y="191" type="curve"/>
      <point x="429" y="105"/>
      <point x="365" y="58"/>
      <point x="276" y="58" type="curve" smooth="yes"/>
      <point x="210" y="58"/>
      <point x="109" y="86"/>
      <point x="105" y="191" type="curve"/>
      <point x="40" y="146" type="line"/>
      <point x="54" y="30"/>
      <point x="159" y="-8"/>
      <point x="273" y="-8" type="curve" smooth="yes"/>
      <point x="436" y="-8"/>
      <point x="505" y="97"/>
      <point x="505" y="201" type="curve"/>
      <point x="505" y="444"/>
      <point x="115" y="380"/>
      <point x="115" y="542" type="curve"/>
      <point x="115" y="623"/>
      <point x="174" y="666"/>
      <point x="250" y="666" type="curve" smooth="yes"/>
      <point x="327" y="666"/>
      <point x="394" y="636"/>
      <point x="399" y="528" type="curve"/>
      <point x="467" y="578" type="line"/>
      <point x="457" y="693"/>
      <point x="361" y="732"/>
      <point x="254" y="732" type="curve" smooth="yes"/>
      <point x="142" y="732"/>
      <point x="40" y="667"/>
      <point x="40" y="536" type="curve"/>
      <point x="40" y="301"/>
      <point x="429" y="373"/>
    </contour>
  </outline>
</glyph>
<glyph name="V" format="2">
  <advance width="616"/>
  <unicode hex="0056"/>
  <outline>
    <contour>
      <point x="566" y="720" type="line"/>
      <point x="345" y="0" type="line"/>
      <point x="271" y="0" type="line"/>
      <point x="50" y="720" type="line"/>
      <point x="138" y="720" type="line"/>
      <point x="339" y="10" type="line"/>
      <point x="281" y="10" type="line"/>
      <point x="484" y="720" type="line"/>
    </contour>
  </outline>
</glyph>
<glyph name="W" format="2">
  <advance width="841"/>
  <unicode hex="0057"/>
  <note>
I tried to follow the contrast model for the “W”. But I’m worried it just looks awkward
</note>
  <outline>
    <contour>
      <point x="395" y="699" type="line"/>
      <point x="533" y="0" type="line"/>
      <point x="633" y="0" type="line"/>
      <point x="771" y="720" type="line"/>
      <point x="693" y="720" type="line"/>
      <point x="568" y="9" type="line"/>
      <point x="607" y="9" type="line"/>
      <point x="474" y="720" type="line"/>
      <point x="374" y="720" type="line"/>
      <point x="243" y="9" type="line"/>
      <point x="285" y="9" type="line"/>
      <point x="153" y="720" type="line"/>
      <point x="70" y="720" type="line"/>
      <point x="208" y="0" type="line"/>
      <point x="310" y="0" type="line"/>
      <point x="444" y="699" type="line"/>
    </contour>
  </outline>
</glyph>
<glyph name="X" format="2">
  <advance width="557"/>
  <unicode hex="0058"/>
  <note>
This is not an exact scaled replica of the lc version. Not sure if they need to be identical or not..
</note>
  <outline>
    <contour>
      <point x="50" y="720" type="line"/>
      <point x="135" y="720" type="line"/>
      <point x="506" y="0" type="line"/>
      <point x="421" y="0" type="line"/>
    </contour>
    <contour>
      <point x="507" y="720" type="line"/>
      <point x="320" y="357" type="line"/>
      <point x="285" y="293" type="line"/>
      <point x="134" y="0" type="line"/>
      <point x="55" y="0" type="line"/>
      <point x="243" y="364" type="line"/>
      <point x="281" y="434" type="line"/>
      <point x="428" y="720" type="line"/>
    </contour>
  </outline>
</glyph>
<glyph name="a" format="2">
  <advance width="480"/>
  <unicode hex="0061"/>
  <outline>
    <contour>
      <point x="127" y="139" type="curve" smooth="yes"/>
      <point x="127" y="207"/>
      <point x="184" y="261"/>
      <point x="330" y="261" type="curve"/>
      <point x="320" y="281" type="line"/>
      <point x="320" y="201" type="line"/>
      <point x="320" y="91"/>
      <point x="253" y="49"/>
      <point x="205" y="49" type="curve" smooth="yes"/>
      <point x="158" y="49"/>
      <point x="127" y="88"/>
    </contour>
    <contour>
      <point x="320" y="373" type="curve"/>
      <point x="320" y="312" type="line"/>
      <point x="149" y="312"/>
      <point x="55" y="239"/>
      <point x="55" y="128" type="curve" smooth="yes"/>
      <point x="55" y="48"/>
      <point x="112" y="-8"/>
      <point x="184" y="-8" type="curve" smooth="yes"/>
      <point x="273" y="-8"/>
      <point x="326" y="60"/>
      <point x="326" y="132" type="curve"/>
      <point x="320" y="99" type="line"/>
      <point x="320" y="11"/>
      <point x="384" y="-18"/>
      <point x="460" y="6" type="curve"/>
      <point x="460" y="64" type="line"/>
      <point x="407" y="48"/>
      <point x="390" y="65"/>
      <point x="390" y="120" type="curve"/>
      <point x="390" y="366" type="line"/>
      <point x="390" y="471"/>
      <point x="337" y="528"/>
      <point x="227" y="528" type="curve"/>
      <point x="133" y="528"/>
      <point x="69" y="486"/>
      <point x="62" y="406" type="curve"/>
      <point x="122" y="365" type="line"/>
      <point x="126" y="442"/>
      <point x="169" y="470"/>
      <point x="225" y="470" type="curve" smooth="yes"/>
      <point x="281" y="470"/>
      <point x="320" y="442"/>
    </contour>
  </outline>
</glyph>
<glyph name="i" format="2">
  <advance width="206"/>
  <unicode hex="0069"/>
  <outline>
    <contour>
      <point x="68" y="520" type="line"/>
      <point x="68" y="0" type="line"/>
      <point x="138" y="0" type="line"/>
      <point x="138" y="520" type="line"/>
    </contour>
    <contour>
      <point x="138" y="705" type="line"/>
      <point x="68" y="705" type="line"/>
      <point x="68" y="617" type="line"/>
      <point x="138" y="617" type="line"/>
    </contour>
  </outline>
</glyph>
<glyph name="s" format="2">
  <advance width="390"/>
  <unicode hex="0073"/>
  <outline>
    <contour>
      <point x="298" y="136" type="curve"/>
      <point x="298" y="73"/>
      <point x="240" y="50"/>
      <point x="190" y="50" type="curve" smooth="yes"/>
      <point x="140" y="50"/>
      <point x="84" y="78"/>
      <point x="80" y="155" type="curve"/>
      <point x="20" y="114" type="line"/>
      <point x="27" y="34"/>
      <point x="99" y="-8"/>
      <point x="189" y="-8" type="curve" smooth="yes"/>
      <point x="279" y="-8"/>
      <point x="370" y="50"/>
      <point x="370" y="155" type="curve"/>
      <point x="370" y="319"/>
      <point x="92" y="279"/>
      <point x="92" y="389" type="curve"/>
      <point x="92" y="436"/>
      <point x="129" y="470"/>
      <point x="179" y="470" type="curve"/>
      <point x="235" y="470"/>
      <point x="278" y="442"/>
      <point x="282" y="365" type="curve"/>
      <point x="342" y="406" type="line"/>
      <point x="334" y="489"/>
      <point x="259" y="528"/>
      <point x="177" y="528" type="curve" smooth="yes"/>
      <point x="95" y="528"/>
      <point x="20" y="480"/>
      <point x="20" y="386" type="curve"/>
      <point x="20" y="209"/>
      <point x="298" y="260"/>
    </contour>
  </outline>
</glyph>
<glyph name="v" format="2">
  <advance width="453"/>
  <unicode hex="0076"/>
  <outline>
    <contour>
      <point x="413" y="520" type="line"/>
      <point x="261" y="0" type="line"/>
      <point x="192" y="0" type="line"/>
      <point x="40" y="520" type="line"/>
      <point x="115" y="520" type="line"/>
      <point x="253" y="4" type="line"/>
      <point x="201" y="4" type="line"/>
      <point x="343" y="520" type="line"/>
    </contour>
  </outline>
</glyph>
<glyph name="x" format="2">
  <advance width="427"/>
  <unicode hex="0078"/>
  <note>
This was all optical adjustments. I have no idea if the top counter of the “x” is identical to the bottom as well as left and right
</note>
  <guideline x="416" y="520" angle="62.91" name="X Angle" identifier="iEM6MqBJNC"/>
  <outline>
    <contour>
      <point x="40" y="520" type="line"/>
      <point x="117" y="520" type="line"/>
      <point x="384" y="0" type="line"/>
      <point x="308" y="0" type="line"/>
    </contour>
    <contour>
      <point x="387" y="520" type="line"/>
      <point x="248" y="250" type="line"/>
      <point x="214" y="198" type="line"/>
      <point x="112" y="0" type="line"/>
      <point x="40" y="0" type="line"/>
      <point x="177" y="267" type="line"/>
      <point x="213" y="323" type="line"/>
      <point x="314" y="520" type="line"/>
    </contour>
  </outline>
</glyph>
